<svg xmlns="http://www.w3.org/2000/svg" width="136" height="61" viewBox="0 0 163 56.32"><defs><style>.cls-1{fill:#24ae5f;}.cls-2{fill:#fff;}.cls-3{fill:#191919;}</style></defs><title>green</title><g id="Layer_2" data-name="Layer 2"><g id="Layer_1-2" data-name="Layer 1"><path class="cls-1" d="M19.22,48Zm13.45-9.24a11.64,11.64,0,0,0,.74,1.62c.1,0,2.3,1,2.3,1l.92.1C36,39.25,32.67,38.77,32.67,38.77Zm.85-10a5.84,5.84,0,0,0,.33-.53A5.84,5.84,0,0,1,33.52,28.82ZM18.38,53.34v0h0v0Z"/><path class="cls-2" d="M18.38,53.34v0ZM19.22,48Z"/><path class="cls-2" d="M28.3,11.27A14,14,0,0,0,14.59,22.6h0c-.05.19-1.3,5.8-.28,23.84v0c0,3.1-1.83,3.84-1.83,3.84l-.15.07h0l0,0,0,0,.12.08.09.06.05,0a25.44,25.44,0,0,0,5.7,2.81v-.06h0v0c.07-.17.31-.77.41-1.13h0a4.29,4.29,0,0,0,.16-.43c-.36-.15-.42-1-.42-1a12.74,12.74,0,0,1,.13-2.62.7.7,0,0,1,.48-.47,32.71,32.71,0,0,1,0-5.77,3,3,0,0,1,1.28-2,1.28,1.28,0,0,1,.05-.39,9.37,9.37,0,0,1,.9-.45.56.56,0,0,1,.3.09c1.56-.74,3.26-1,3.28-1.33,0-.51,3.69-.48,3.69-.48s3.65,0,3.69.49c0,.13.4.27,1,.46a14,14,0,0,0-5-27Zm6.32,14.34a1.23,1.23,0,0,1,0,.27,1.86,1.86,0,0,1,0,.33,4.7,4.7,0,0,1-.13.63,5.11,5.11,0,0,1-.22.66,1.09,1.09,0,0,1-.09.23A2.92,2.92,0,0,1,34,28c0,.09-.09.17-.13.25a5.84,5.84,0,0,1-.33.53l-.18.25h0c-.09.12-.19.24-.29.35a1.29,1.29,0,0,1-.16.17l-.16.17,0,0c-1.2,1.34-4.22,4.83-4.36,5h0a2,2,0,0,0-.11-.2c-1.46-1.77-3.41-3.87-4.2-4.72,0,0,0,0-.05-.05h0l-.18-.18-.1-.1-.15-.17c-.05-.06-.11-.12-.16-.19a1.47,1.47,0,0,1-.1-.13l-.12-.15,0-.07-.13-.2a1.59,1.59,0,0,1-.13-.22l-.09-.14s-.05-.09-.08-.14l-.09-.2a2.56,2.56,0,0,1-.11-.24,2,2,0,0,1-.11-.26,1.72,1.72,0,0,1-.07-.21c0-.09-.06-.17-.08-.25a1.21,1.21,0,0,1-.05-.18A6.13,6.13,0,0,1,22,25.22a6.35,6.35,0,0,1,12.69,0A2.55,2.55,0,0,1,34.62,25.61Z"/><path class="cls-1" d="M27.46,0A27.46,27.46,0,0,0,12.32,50.37h0l.15-.07s1.86-.74,1.83-3.84v0c-1-18,.23-23.65.28-23.84h0A14,14,0,1,1,33.28,38.26c-.58-.19-1-.33-1-.46,0-.51-3.69-.49-3.69-.49s-3.64,0-3.69.48c0,.28-1.72.59-3.28,1.33a.56.56,0,0,0-.3-.09,9.37,9.37,0,0,0-.9.45,1.28,1.28,0,0,0-.05.39,3,3,0,0,0-1.28,2,32.71,32.71,0,0,0,0,5.77.7.7,0,0,0-.48.47,12.74,12.74,0,0,0-.13,2.62s.06.83.42,1a4.29,4.29,0,0,1-.16.43h0c-.1.36-.34,1-.41,1.13v.1a20,20,0,0,0,2.23.65l.12,0c.41.1.82.2,1.24.28h0l.84-3.08a2.59,2.59,0,0,1,1.89-1.76c.09,0,2.24-.57,7.09,0h0A2.59,2.59,0,0,1,34,51.27l.81,2.64,0,.05a20.3,20.3,0,0,0,3.28-1.2l.07,0A27.46,27.46,0,0,0,27.46,0ZM19.22,48Zm4.22-7.53c-.11,0-2.37.87-2.37.87l-.45,0-.38,0a2.49,2.49,0,0,1,.38-.7c1.14-1.54,3.66-1.7,3.66-1.7A12,12,0,0,1,23.44,40.48Zm10-.09a11.64,11.64,0,0,1-.74-1.62s3.3.48,4,2.76l-.92-.1S33.51,40.4,33.41,40.39Z"/><path class="cls-1" d="M20.31,53.42l0,0v0Z"/><path class="cls-1" d="M19.22,48Z"/><path class="cls-1" d="M36.63,41.53l-.92-.1s-2.2-1-2.3-1a11.64,11.64,0,0,1-.74-1.62S36,39.25,36.63,41.53Z"/><path class="cls-2" d="M19.22,48Z"/><path class="cls-1" d="M34.64,25.22a2.55,2.55,0,0,1,0,.39,1.23,1.23,0,0,1,0,.27,1.86,1.86,0,0,1,0,.33,4.7,4.7,0,0,1-.13.63,5.11,5.11,0,0,1-.22.66,1.09,1.09,0,0,1-.09.23A2.92,2.92,0,0,1,34,28c0,.09-.09.17-.13.25a5.84,5.84,0,0,1-.33.53l-.18.25h0c-.09.12-.19.24-.29.35l-.16.17-.16.17,0,0c-1.2,1.34-4.22,4.83-4.36,5h0a2,2,0,0,0-.11-.2c-1.46-1.77-3.41-3.87-4.2-4.72,0,0,0,0-.05-.05h0l-.18-.18-.1-.1-.15-.17c-.05-.06-.11-.12-.16-.19a1.47,1.47,0,0,1-.1-.13l-.12-.15,0-.07-.13-.2a1.59,1.59,0,0,1-.13-.22l-.09-.14s-.05-.09-.08-.14l-.09-.2a2.56,2.56,0,0,1-.11-.24,2,2,0,0,1-.11-.26,1.72,1.72,0,0,1-.07-.21c0-.09-.06-.17-.08-.25a1.21,1.21,0,0,1-.05-.18A6.13,6.13,0,0,1,22,25.22a6.35,6.35,0,0,1,12.69,0Z"/><path class="cls-2" d="M24.28,38.91a12,12,0,0,1-.84,1.57c-.11,0-2.37.87-2.37.87l-.45,0-.38,0a2.49,2.49,0,0,1,.38-.7C21.76,39.07,24.28,38.91,24.28,38.91Z"/><path class="cls-2" d="M36.63,41.53l-.92-.1s-2.2-1-2.3-1a11.64,11.64,0,0,1-.74-1.62S36,39.25,36.63,41.53Z"/><path class="cls-2" d="M34.86,54h0a25,25,0,0,1-12.9.4h0l.84-3.08a2.59,2.59,0,0,1,1.89-1.76c.09,0,2.24-.57,7.09,0h0A2.59,2.59,0,0,1,34,51.27l.81,2.64Z"/><path class="cls-3" d="M90.9,17.67a4.15,4.15,0,0,1-1.08,3.06,4.52,4.52,0,0,1-3.31,1.08,4,4,0,0,1-3.07-1,4.21,4.21,0,0,1-.89-2.93h2.54a2.83,2.83,0,0,0,.37,1.59,1.6,1.6,0,0,0,1.41.52,1.42,1.42,0,0,0,1.36-.62,4.37,4.37,0,0,0,.33-1.94V15.4a8.65,8.65,0,0,1-1.45,1,3,3,0,0,1-1.39.37,2.65,2.65,0,0,1-2.83-1.67,17.55,17.55,0,0,1-.6-5.45,13.94,13.94,0,0,1,.6-4.78q.6-1.5,3.06-1.5a2.64,2.64,0,0,1,1.42.32,6.53,6.53,0,0,1,1.19,1V3.56H90.9ZM88.56,9.6a9,9,0,0,0-.48-3.7c-.31-.58-1-.87-2-.87q-1,0-1.2,1.32a19.48,19.48,0,0,0-.25,3.42,20.84,20.84,0,0,0,.29,3.94,1.52,1.52,0,0,0,1.56,1.4A1.64,1.64,0,0,0,88.14,14,14.79,14.79,0,0,0,88.56,9.6Z"/><path class="cls-3" d="M103.4,12.8a4.43,4.43,0,0,1-1,3.12,3.76,3.76,0,0,1-2.89,1.13c-1.93,0-3.16-.45-3.7-1.35S95,13,95,10.23a13.86,13.86,0,0,1,.72-5.33c.48-1,1.64-1.54,3.47-1.54s3.16.53,3.59,1.59a17.83,17.83,0,0,1,.65,5.94h-6a11.43,11.43,0,0,0,.33,3.56c.23.5.78.75,1.68.75a1.56,1.56,0,0,0,1.22-.45A3.15,3.15,0,0,0,101,12.8Zm-2.48-3.75V7.46a3.93,3.93,0,0,0-.32-1.75c-.21-.41-.69-.62-1.43-.62a1.4,1.4,0,0,0-1.45.76A5.68,5.68,0,0,0,97.4,8v1Z"/><path class="cls-3" d="M112.15,17h-1.76a3.65,3.65,0,0,1-2-.52,1.76,1.76,0,0,1-.85-1.62V5.32h-2V3.56h2V1L110,0V3.56h2.13V5.32H110v8q0,1.38.39,1.68a3.38,3.38,0,0,0,1.74.29Z"/><path class="cls-3" d="M136.41,17h-2.48V7.17a3.86,3.86,0,0,0-.39-1.47,1.3,1.3,0,0,0-1.26-.55,1.47,1.47,0,0,0-1.47.76,5.4,5.4,0,0,0-.38,2.28V17h-2.54V7.22a2.63,2.63,0,0,0-.39-1.48,1.46,1.46,0,0,0-1.31-.59,1.55,1.55,0,0,0-1.34.6,3.11,3.11,0,0,0-.45,1.85V17h-2.48V3.56h2.48V4.74a3.13,3.13,0,0,1,1.21-1,3.35,3.35,0,0,1,1.5-.39,3.79,3.79,0,0,1,1.75.39A2.6,2.6,0,0,1,130,5a5.58,5.58,0,0,1,1.46-1.24,3.5,3.5,0,0,1,1.72-.4,3,3,0,0,1,2.41.94,3.62,3.62,0,0,1,.79,2.42Z"/><path class="cls-3" d="M149.46,3.56,143.8,21.72h-2.54l1.53-4.62L139,3.56h2.71l2.47,10.32,2.94-10.32Z"/><path class="cls-3" d="M77.12,31c0,1.8-.39,3-1.16,3.73a5,5,0,0,1-3.42,1h-2v7.44H68.18V26.5H73a4.29,4.29,0,0,1,3,1A4.46,4.46,0,0,1,77.12,31ZM74.8,31a2.65,2.65,0,0,0-.6-2,3,3,0,0,0-2-.54H70.5v5.42h1.71a2.9,2.9,0,0,0,2.07-.55A3.54,3.54,0,0,0,74.8,31Z"/><path class="cls-3" d="M92.8,43.16H90.5l-1-3.72H84l-1,3.72H80.82L85.38,26.5h2.84Zm-3.72-5.74-2.22-9.3-2.36,9.3Z"/><path class="cls-3" d="M107.6,43.16H105a16.69,16.69,0,0,1-.51-3.84,11.38,11.38,0,0,0-.25-2.61,1.82,1.82,0,0,0-.81-.79,2.82,2.82,0,0,0-1.4-.35h-1.89v7.59H97.86V26.5h5a4.28,4.28,0,0,1,3.27,1.05,4.87,4.87,0,0,1,1,3.35,3.63,3.63,0,0,1-.59,2.53,7.14,7.14,0,0,1-2.26,1.12,3.32,3.32,0,0,1,1.21.4,2.1,2.1,0,0,1,.86.76,14.81,14.81,0,0,1,.54,3.31A19.39,19.39,0,0,0,107.6,43.16ZM104.78,30.8c0-1.67-.9-2.5-2.72-2.5h-1.94v5.42l1.49,0a3.71,3.71,0,0,0,2.48-.64A3,3,0,0,0,104.78,30.8Z"/><path class="cls-3" d="M115.4,43.16h-2.31V26.5h2.31Zm8,0H120.5L115.59,34l4.78-7.49H123L118,34Z"/><path class="cls-3" d="M130.68,43.16h-2.36V26.5h2.36Z"/><path class="cls-3" d="M147.67,43.16h-3.5l-4.86-15v15h-2.06V26.5h3.63L145.65,41l0-14.54h2Z"/><path class="cls-3" d="M163,42a9.14,9.14,0,0,1-4.88,1.32c-1.77,0-3-.39-3.7-1.19a4.7,4.7,0,0,1-1.06-3.26v-8a4.73,4.73,0,0,1,1.15-3.38,5,5,0,0,1,3.78-1.23c1.77,0,3,.43,3.68,1.29a5.53,5.53,0,0,1,1,3.56h-2.32a3.77,3.77,0,0,0-.56-2.16,2,2,0,0,0-1.8-.84,3,3,0,0,0-1.79.63,2.26,2.26,0,0,0-.85,2v8.46a2.24,2.24,0,0,0,.65,1.75,2.63,2.63,0,0,0,1.84.6,5.14,5.14,0,0,0,1.51-.17l1-.43V36.22H158v-2h5Z"/><path class="cls-1" d="M77.65,49.71l.75,2.77.16.64h0l1-3.4h.83a1.57,1.57,0,0,1-.09.43L79,54l-.94,0-.74-2.52-.14-.59h0L76.3,54l-.93,0-1.25-3.87a1.26,1.26,0,0,1-.08-.43h.85l.79,2.76.16.64h0l.93-3.39Z"/><path class="cls-1" d="M82.19,47.16V50.1a2.23,2.23,0,0,1,1.43-.5c.92,0,1.29.52,1.29,1.49V54h-.85V51.38c0-.73-.15-1.05-.66-1.05a2.25,2.25,0,0,0-1.21.39V54h-.83V47.18Z"/><path class="cls-1" d="M88,49.61a1.54,1.54,0,0,1,1.58,1.75,3.32,3.32,0,0,1-.07.72H86.9c0,.91.5,1.29,1.17,1.29a3.91,3.91,0,0,0,1.22-.21l.21.59a3.62,3.62,0,0,1-1.57.36A1.88,1.88,0,0,1,86,52,2.11,2.11,0,0,1,88,49.61Zm-1.11,1.88h1.85v-.28c0-.54-.26-.91-.81-.91S87,50.75,86.91,51.49Z"/><path class="cls-1" d="M91.4,49.65l.16.79a1.38,1.38,0,0,1,1.17-.82,1.15,1.15,0,0,1,.6.17l-.15.79a1.71,1.71,0,0,0-.5-.06,1.21,1.21,0,0,0-1.06.65V54h-.84V51.45c0-.35,0-.74-.09-1.71Z"/><path class="cls-1" d="M95.75,49.61a1.55,1.55,0,0,1,1.59,1.75,4.09,4.09,0,0,1-.07.72H94.63c.06.91.51,1.29,1.18,1.29A3.91,3.91,0,0,0,97,53.16l.21.59a3.67,3.67,0,0,1-1.58.36A1.88,1.88,0,0,1,93.77,52,2.1,2.1,0,0,1,95.75,49.61Zm-1.11,1.88h1.85a2.62,2.62,0,0,0,0-.28c0-.54-.26-.91-.81-.91S94.73,50.75,94.64,51.49Z"/><path class="cls-1" d="M101.1,49.65l.12.6a1.93,1.93,0,0,1,1.44-.65,1,1,0,0,1,1.1.69,1.94,1.94,0,0,1,1.48-.69c.86,0,1.21.52,1.21,1.54V54h-.83V51.46c0-.82-.15-1.14-.62-1.14a1.77,1.77,0,0,0-1.12.51V54h-.83V51.46c0-.82-.15-1.14-.61-1.14a1.77,1.77,0,0,0-1.13.51V54h-.84V51.45c0-.34,0-.74-.09-1.71Z"/><path class="cls-1" d="M109.61,49.6a1.94,1.94,0,0,1,1.87,2.18,2.12,2.12,0,0,1-2,2.35A1.93,1.93,0,0,1,107.58,52,2.15,2.15,0,0,1,109.61,49.6Zm-.09.72a.93.93,0,0,0-.7.27,1.86,1.86,0,0,0-.37,1.25c0,.93.37,1.57,1.1,1.57a1,1,0,0,0,.7-.28,1.87,1.87,0,0,0,.36-1.22C110.61,51,110.24,50.32,109.52,50.32Z"/><path class="cls-1" d="M113.46,47.16v3a1.57,1.57,0,0,1,1.21-.58c1.06,0,1.67.94,1.67,2.18a2.09,2.09,0,0,1-2.09,2.33,5.15,5.15,0,0,1-1.63-.26V47.18Zm1.61,6a1.69,1.69,0,0,0,.41-1.27c0-1-.35-1.55-1-1.55a1.54,1.54,0,0,0-1.05.52V53.3a3.72,3.72,0,0,0,.84.1A1.08,1.08,0,0,0,115.07,53.14Z"/><path class="cls-1" d="M118,47.83a.49.49,0,0,1,.52.51.53.53,0,0,1-.57.56.48.48,0,0,1-.53-.5A.55.55,0,0,1,118,47.83Zm.38,1.88V54h-.84V49.73Z"/><path class="cls-1" d="M120.57,47.16V53c0,.27.07.38.26.38a.84.84,0,0,0,.32-.07l.19.64a2.32,2.32,0,0,1-.79.16c-.53,0-.83-.32-.83-.91v-6Z"/><path class="cls-1" d="M122.64,47.83a.49.49,0,0,1,.52.51.53.53,0,0,1-.57.56.48.48,0,0,1-.52-.5A.55.55,0,0,1,122.64,47.83Zm.38,1.88V54h-.84V49.73Z"/><path class="cls-1" d="M125.5,48.45v1.27h1.31v.71H125.5v2c0,.7.12.88.54.88a3.43,3.43,0,0,0,.68-.09l.17.63a4,4,0,0,1-1.18.21c-.69,0-1-.32-1-1.4V50.43H124v-.71h.59l.19-1.27Z"/><path class="cls-1" d="M131.33,49.72a1,1,0,0,1-.1.43l-1.49,4.08c-.57,1.44-1.18,2-2,2a2.33,2.33,0,0,1-.43,0v-.67c.82,0,1.32-.47,1.76-1.55h-.19l-1.39-3.86a1.26,1.26,0,0,1-.08-.43h.86l.84,2.53a6.34,6.34,0,0,1,.22.86h0l1.13-3.39Z"/><path class="cls-1" d="M135,47.16v3a1.56,1.56,0,0,1,1.2-.58c1.07,0,1.68.94,1.68,2.18a2.09,2.09,0,0,1-2.09,2.33,5.26,5.26,0,0,1-1.64-.26V47.18Zm1.61,6a1.69,1.69,0,0,0,.41-1.27c0-1-.35-1.55-1-1.55a1.54,1.54,0,0,0-1,.52V53.3a3.72,3.72,0,0,0,.84.1A1.08,1.08,0,0,0,136.57,53.14Z"/><path class="cls-1" d="M140.74,49.61a1.55,1.55,0,0,1,1.59,1.75,3.31,3.31,0,0,1-.08.72h-2.63c0,.91.5,1.29,1.17,1.29a4,4,0,0,0,1.23-.21l.21.59a3.67,3.67,0,0,1-1.58.36,1.89,1.89,0,0,1-1.9-2.14A2.11,2.11,0,0,1,140.74,49.61Zm-1.11,1.88h1.85a2.62,2.62,0,0,0,0-.28c0-.54-.27-.91-.81-.91S139.72,50.75,139.63,51.49Z"/><path class="cls-1" d="M144,52.55a1.41,1.41,0,0,1-.8-1.3A1.62,1.62,0,0,1,145,49.62a2,2,0,0,1,.91.22,1.78,1.78,0,0,1,1.19-.53l0,.72a5.15,5.15,0,0,0-.8.16,1.5,1.5,0,0,1,.33,1,1.6,1.6,0,0,1-1.78,1.58,1.79,1.79,0,0,1-.34,0,.6.6,0,0,0-.14.36c0,.37.33.42.89.43,1.1,0,1.74.4,1.74,1.22,0,1-.92,1.62-2.21,1.62-1.05,0-1.82-.47-1.81-1.3a1.5,1.5,0,0,1,.76-1.22.73.73,0,0,1-.14-.45A1.09,1.09,0,0,1,144,52.55ZM146,55.37a.69.69,0,0,0,.28-.57c0-.52-.51-.6-1.22-.61a3.28,3.28,0,0,1-.74-.08,1,1,0,0,0-.49.81c0,.5.48.71,1.18.71A1.5,1.5,0,0,0,146,55.37Zm-1-5.1a.82.82,0,0,0-.9.88.91.91,0,0,0,1.81,0A.83.83,0,0,0,145,50.27Z"/><path class="cls-1" d="M148.54,47.83a.49.49,0,0,1,.52.51.52.52,0,0,1-.56.56.48.48,0,0,1-.53-.5A.55.55,0,0,1,148.54,47.83Zm.38,1.88V54h-.83V49.73Z"/><path class="cls-1" d="M151,49.65l.12.58a2.07,2.07,0,0,1,1.51-.63c.94,0,1.29.53,1.29,1.48V54H153V51.4c0-.73-.13-1.08-.66-1.08a2,2,0,0,0-1.2.5V54h-.83V51.45c0-.35,0-.76-.1-1.71Z"/><path class="cls-1" d="M156.68,49.62a2,2,0,0,1,1.33.48l-.36.54a1.81,1.81,0,0,0-1-.31c-.45,0-.7.2-.7.48s.38.51.88.7c.7.25,1.31.52,1.31,1.28s-.67,1.32-1.67,1.32a2.51,2.51,0,0,1-1.56-.53l.35-.56a2.05,2.05,0,0,0,1.17.39c.48,0,.83-.2.83-.53s-.5-.57-1-.78-1.13-.52-1.14-1.19S155.81,49.62,156.68,49.62Z"/></g></g></svg>