<svg version="1.0" xmlns="http://www.w3.org/2000/svg" width="45" height="45" viewBox="0 0 900.000000 580.000000" preserveAspectRatio="xMidYMid meet">
            <title id="fwt-language-button-icon-title">Choose Country</title>
            <g fill="none" fill-rule="evenodd">
                <g transform="translate(0.000000,580.000000) scale(0.100000,-0.100000)" fill="#000000" stroke="none">
                <path d="M4190 5274 c-185 -34 -310 -64 -430 -104 -524 -175 -967 -524 -1258
-993 -388 -622 -458 -1422 -185 -2101 276 -690 847 -1203 1558 -1400 379 -105
793 -112 1174 -20 1085 264 1834 1248 1798 2359 -20 602 -262 1162 -687 1585
-327 327 -718 540 -1177 642 -136 30 -143 31 -453 33 -173 2 -326 1 -340 -1z
m-581 -370 c44 -63 115 -73 167 -23 28 27 35 29 54 19 22 -12 22 -12 -21 -56
-40 -41 -47 -44 -97 -44 -45 0 -53 -3 -48 -16 3 -9 6 -27 6 -41 0 -26 0 -26
68 -19 48 5 71 12 82 26 10 12 30 20 60 22 40 3 45 6 48 30 3 21 -1 27 -19 30
-30 4 -34 20 -12 47 17 20 26 22 108 19 l90 -3 -43 -39 c-35 -32 -41 -43 -35
-65 8 -33 20 -41 61 -41 l32 0 0 53 0 54 50 23 c38 18 68 23 132 24 77 1 89
-2 173 -41 l90 -42 3 -44 c3 -41 6 -45 33 -51 33 -6 36 -21 13 -54 -12 -17
-25 -22 -63 -22 -45 0 -48 -2 -60 -35 -7 -19 -17 -35 -22 -35 -20 0 -194 43
-202 49 -4 4 27 25 69 47 42 21 77 42 80 45 2 3 -10 18 -26 34 l-29 28 -78
-12 c-63 -9 -83 -17 -108 -40 -16 -16 -45 -32 -62 -36 -32 -6 -44 -27 -23 -40
18 -11 10 -25 -14 -25 -16 0 -26 -7 -29 -21 -4 -16 -12 -20 -34 -17 -22 2 -29
9 -31 31 -4 31 -13 33 -72 12 -35 -12 -174 -87 -227 -123 -9 -6 -9 -18 -1 -49
13 -52 43 -73 123 -87 l60 -11 3 -63 c3 -57 5 -62 25 -62 18 0 29 13 49 54 25
50 30 54 85 72 l58 19 5 82 c5 81 6 83 39 106 l34 23 81 -20 80 -21 -3 -52
c-3 -64 4 -66 90 -22 34 17 63 29 65 27 2 -2 4 -33 6 -68 2 -63 2 -63 46 -89
41 -25 43 -28 40 -70 -3 -41 -6 -45 -38 -56 -51 -17 -48 -37 10 -62 44 -19 50
-25 50 -52 0 -41 -22 -41 -132 1 -34 12 -43 45 -17 61 24 15 26 57 3 57 -9 0
-22 -7 -29 -16 -7 -10 -32 -19 -62 -21 -45 -5 -52 -3 -57 15 -13 38 -89 40
-101 2 -9 -28 1 -38 40 -46 40 -7 43 -14 16 -38 -12 -11 -21 -14 -26 -7 -15
25 -60 11 -102 -31 -24 -23 -43 -47 -43 -53 0 -6 -30 -27 -67 -47 -87 -47
-220 -179 -225 -223 -2 -24 -16 -39 -73 -78 -38 -26 -87 -65 -108 -85 l-39
-37 7 -67 c7 -77 5 -79 -55 -48 -37 19 -40 24 -40 60 l0 40 -140 0 c-140 0
-141 0 -208 -34 -61 -31 -72 -41 -99 -93 -50 -93 -58 -135 -35 -187 19 -42 21
-43 76 -50 56 -6 57 -6 142 50 68 45 88 54 95 43 15 -23 10 -52 -16 -97 -17
-30 -21 -44 -12 -46 7 -2 38 -9 70 -16 l57 -11 0 -67 c0 -37 3 -83 6 -103 l6
-36 89 -15 89 -15 63 68 62 67 65 -13 c53 -12 71 -21 97 -51 l32 -36 65 7 c46
5 66 12 66 21 0 44 79 -11 124 -85 l37 -61 74 0 73 0 26 -44 c15 -26 28 -69
33 -107 l8 -63 85 -33 c74 -28 98 -32 181 -32 l97 -1 31 -49 c26 -40 39 -51
77 -61 32 -9 43 -17 40 -27 -4 -8 -6 -23 -6 -33 0 -10 -24 -50 -53 -89 -53
-71 -53 -71 -66 -178 -20 -182 -18 -175 -64 -210 -37 -28 -52 -32 -112 -35
-66 -3 -70 -4 -88 -36 -18 -30 -19 -39 -8 -90 7 -31 14 -64 17 -73 2 -9 -27
-55 -69 -110 -41 -52 -83 -112 -95 -134 -17 -34 -33 -47 -94 -77 -40 -19 -92
-39 -115 -43 -52 -8 -58 -35 -13 -52 38 -14 38 -24 -2 -69 -38 -43 -31 -66 26
-75 20 -3 39 -9 43 -12 3 -4 -2 -36 -12 -72 l-18 -66 53 -47 c71 -65 64 -82
-34 -82 l-72 0 -72 68 c-52 48 -86 91 -120 154 l-48 86 8 89 c8 95 12 82 -53
171 -21 30 -21 44 7 183 4 20 0 28 -21 37 l-25 12 0 195 0 195 -67 49 c-37 27
-82 52 -100 56 -34 6 -53 29 -53 64 0 11 -41 71 -91 133 -70 87 -89 117 -84
133 4 11 9 57 12 103 l6 83 59 42 60 42 -6 69 c-4 39 -8 71 -9 73 -2 1 -42 6
-90 9 l-87 7 -67 78 c-70 82 -85 90 -202 114 -30 6 -33 10 -27 36 5 26 3 29
-18 29 -14 0 -31 3 -40 6 -11 4 -16 1 -16 -11 0 -13 -6 -16 -22 -12 -12 4 -58
14 -101 23 l-79 17 -43 65 c-40 60 -43 67 -29 86 7 11 14 26 14 34 0 7 -28 54
-62 105 -52 76 -64 103 -73 157 -9 57 -13 65 -34 68 -24 4 -24 3 -17 -64 6
-56 14 -78 51 -136 25 -38 45 -76 45 -86 0 -32 -14 -41 -50 -33 -30 6 -41 17
-82 86 -48 80 -48 80 -48 171 l0 90 -45 22 c-41 20 -45 25 -45 58 0 83 200
441 347 624 119 147 369 381 453 425 37 19 83 19 119 0 16 -8 48 -17 71 -21
31 -5 44 -13 51 -30 8 -22 14 -24 85 -24 l76 0 -14 23 c-13 18 -26 23 -77 25
-61 3 -71 8 -50 29 25 25 2 42 -60 45 l-60 3 62 47 c60 45 64 47 132 47 69 1
70 1 94 -35z m2513 -366 c181 -186 309 -367 424 -604 41 -83 74 -154 74 -158
0 -3 -17 -6 -37 -5 -53 1 -94 50 -101 120 -2 27 -6 49 -8 49 -2 0 -15 -5 -29
-12 -24 -11 -29 -22 -51 -110 -3 -16 -9 -28 -13 -28 -4 0 -26 19 -49 43 -36
37 -42 49 -42 85 0 39 -5 48 -57 97 -53 50 -62 54 -105 55 -52 0 -56 -5 -37
-57 7 -23 26 -39 68 -62 65 -34 88 -56 71 -66 -5 -3 -10 -22 -10 -40 0 -39
-25 -58 -73 -57 -63 2 -80 52 -18 52 68 0 58 23 -40 87 -56 36 -92 66 -95 81
-8 29 -12 28 -49 -8 -27 -26 -34 -28 -68 -21 l-38 9 -57 -76 c-32 -43 -63 -89
-69 -103 -9 -21 -20 -27 -59 -33 -103 -14 -187 4 -198 43 -14 47 -16 128 -4
150 19 36 95 54 171 40 31 -5 62 -7 67 -4 18 11 11 53 -10 60 -22 7 -27 46
-11 89 8 21 19 26 66 31 54 7 57 9 96 65 36 51 47 60 87 69 31 8 63 8 94 3 26
-5 50 -7 53 -4 6 7 -5 85 -15 95 -4 5 -24 1 -45 -7 -44 -19 -50 -16 -65 28 -8
25 -18 35 -39 39 -43 9 -50 51 -15 88 23 25 109 67 138 68 4 1 49 -40 98 -91z
m-437 -103 c9 -54 55 -131 90 -147 30 -13 31 -19 6 -49 -16 -20 -30 -24 -95
-27 l-76 -4 0 40 c0 37 3 41 30 47 47 10 39 36 -22 74 -56 34 -52 89 7 104 48
12 54 8 60 -38z m335 -710 l0 -64 38 -10 c20 -5 66 -17 101 -26 36 -9 74 -23
85 -31 36 -25 56 -18 56 20 0 32 2 34 46 40 73 10 77 8 134 -34 52 -39 56 -40
131 -40 l77 0 26 -107 c47 -200 60 -322 59 -538 0 -156 -5 -229 -22 -335 -52
-316 -150 -584 -308 -844 -66 -108 -189 -276 -203 -276 -6 0 -10 32 -10 76 0
74 -1 77 -45 134 l-45 58 0 93 c0 91 0 92 -35 130 -48 53 -47 91 5 185 22 40
40 78 40 84 0 6 -36 74 -81 151 l-80 140 11 91 c6 50 9 93 6 95 -2 3 -35 8
-71 13 -52 6 -73 14 -94 34 -35 33 -115 37 -153 7 -19 -15 -54 -22 -149 -31
-69 -7 -132 -11 -141 -9 -8 2 -64 60 -123 128 l-108 123 2 97 c1 83 4 98 21
110 13 9 20 25 20 47 0 29 -3 34 -24 34 -21 0 -25 6 -31 41 -4 22 -5 42 -3 43
1 1 58 42 125 90 l122 87 3 66 3 67 55 32 c50 30 62 33 138 34 64 0 92 5 125
22 40 20 127 33 250 37 l47 1 0 -65z"></path>
                </g>
            </g>
          </svg>