<?xml version="1.0" encoding="UTF-8"?><svg id="a" xmlns="http://www.w3.org/2000/svg" width="1102.3" height="1000" viewBox="0 0 1102.3 1000"><defs><style>.b{fill:#17a605;}</style></defs><path class="b" d="M830.63,320.53c-56.88-120.85-179.37-191.96-312.11-181.08-164.09,13.41-288.72,148.77-288.1,312.77v.04c.35,85.81,31.27,159.14,91.85,219.91,63.51,63.7,127.44,127.05,191.22,190.52,22.42,22.34,39.02,22.57,61.25.55,64.36-63.86,128.77-127.64,192.78-191.84,92.86-93.17,118.05-234.14,63.12-350.86ZM545.49,707.84c-149.39.16-269.35-117.03-269.23-263.07.08-145.3,119.02-260.61,268.64-260.57,149.58.08,269.5,117.31,268.99,263.03-.51,142.22-122.26,260.46-268.41,260.61Z"/><path d="M673.97,393.44c-3.47-6.02-9.02-8.37-15.9-8.33-15.35.11-30.69.04-46.03.04h0s-45.64,0-45.64,0c-3.58,0-5.11-1.84-4.6-5.5.3-2.17.57-4.34.85-6.52,5.09-38.95,10.16-77.9,15.27-116.85,1.08-8.23-3.69-15.82-11.6-18.22-7.67-2.33-14.92.74-19.63,8.39-19.82,32.22-39.62,64.44-59.43,96.67-23.32,37.92-46.63,75.84-69.97,113.75-2.48,4.04-4.38,8.19-3.57,13.08,1.46,8.76,8.1,14.22,17.45,14.22,30.94.03,61.89,0,92.83.03,1.43,0,3.38-.9,3,2.24-4.57,37.85-9.01,75.72-13.49,113.59-.56,4.73-1.21,9.46-1.64,14.2-.68,7.42,4.28,14.67,11.41,16.95,7.74,2.48,15.18-.6,19.97-8.4,43.25-70.37,86.47-140.76,129.74-211.12,3.68-5.98,4.55-12.06.99-18.23ZM554.25,541.83l-.64-.11h0c2.74-23.16,5.52-46.3,8.22-69.45,1.58-13.53-5.26-21.15-18.84-21.15h-83.36c25.07-40.77,49.87-81.1,74.67-121.43l.62.23c-1.13,8.86-2.24,17.73-3.41,26.59-1.89,14.43-3.92,28.83-5.71,43.27-1.26,10.18,6.6,18.41,17.57,18.45,22.17.08,44.34.02,66.51.02h20.3c-25.51,41.52-50.71,82.56-75.92,123.58Z"/></svg>