<?xml version="1.0" encoding="UTF-8"?><svg id="a" xmlns="http://www.w3.org/2000/svg" width="1102.3" height="1000" viewBox="0 0 1102.3 1000"><defs><style>.b{fill:#676c76;}.c{fill:#00d1ba;}</style></defs><path class="b" d="M467.66,446.48c-.19,6.44-5.48,11.61-11.71,11.4-6.8-.23-11.48-5.48-11.36-11.71.11-6.44,5.42-11.48,11.59-11.36,6.38.12,11.65,5.46,11.48,11.67Z"/><path class="b" d="M545.48,415.25c-9.71.02-19.43.02-29.12.02h-39.79c-7.64,0-15.29,0-22.93.02-1.32,0-1.59-.21-1.07-1.51,1.72-4.33,3.53-8.62,5.69-12.76,1.76-3.39,4.46-5.58,7.95-7.01,6.51-2.66,13.33-3.89,20.27-4.6,10.13-1.03,20.27-.92,30.36.56,6.21.9,12.3,2.22,17.97,5.1,2.17,1.09,3.77,2.68,5.02,4.73,2.8,4.6,4.71,9.6,6.67,14.6.5,1.26-.52.86-1.02.86Z"/><path class="b" d="M554.4,446.3c.04,6.36-5.21,11.63-11.53,11.59-6.3-.04-11.48-5.19-11.49-11.49-.04-6.34,5.25-11.65,11.55-11.61,6.3.04,11.46,5.21,11.48,11.51Z"/><path d="M739.84,403.65v-77.91h-138.68v220.42h138.68v-77.93c-13.83-4.39-23.81-17.18-23.81-32.28s9.98-27.89,23.81-32.3ZM617.69,414.2c0-5.98,4.85-10.84,10.84-10.84h34.62c5.98,0,10.82,4.87,10.82,10.84v1.13c0,5.98-4.85,10.84-10.82,10.84h-34.62c-6,0-10.84-4.87-10.84-10.84v-1.13ZM617.69,454.09c0-5.98,4.85-10.84,10.84-10.84h34.62c5.98,0,10.82,4.87,10.82,10.84v1.13c0,5.98-4.85,10.84-10.82,10.84h-34.62c-6,0-10.84-4.87-10.84-10.84v-1.13ZM695.66,493.4c0,5.54-4.5,10.04-10.04,10.04h-57.91c-5.54,0-10.02-4.5-10.02-10.04v-2.74c0-5.54,4.48-10.04,10.02-10.04h57.91c5.54,0,10.04,4.5,10.04,10.04v2.74ZM695.66,376.43c0,5.54-4.5,10.02-10.04,10.02h-57.91c-5.54,0-10.02-4.48-10.02-10.02v-2.74c0-5.54,4.48-10.04,10.02-10.04h57.91c5.54,0,10.04,4.5,10.04,10.04v2.74ZM440.97,325.74c-23.87,0-43.24,19.08-43.24,42.64v135.12c0,23.54,19.37,42.66,43.24,42.66h148.62v-220.42h-148.62ZM575.64,414.41c-.63,3.12-1.26,6.25-1.9,9.35-.56,2.68-1.92,3.81-4.66,3.83-1.25.02-2.49,0-3.95,0,1.28,1.76,2.51,3.35,3.47,5.13,5.4,10.15,3.6,22.95-4.46,31.17-.59.61-.84,1.23-.84,2.09.04,4.27.04,8.54.02,12.84,0,4.04-2.34,6.4-6.36,6.44-4.27.02-8.56.02-12.84,0-3.87-.04-6.19-2.38-6.23-6.25-.02-1.55-.06-3.1,0-4.64.04-.8-.25-1.09-1.01-1-.25.02-.5,0-.75,0-24.5,0-48.98.02-73.47-.04-1.49,0-1.88.4-1.76,1.82.13,1.48.06,2.99,0,4.46-.13,3.16-2.47,5.56-5.63,5.59-4.67.08-9.37.08-14.04,0-3.28-.04-5.67-2.51-5.71-5.84-.06-4.56-.02-9.16-.02-13.74,0-.71-.08-1.28-.65-1.84-9.39-8.93-10.34-25.02-2.01-35.38.15-.19.29-.38.61-.82-1.4,0-2.62.02-3.83,0-2.61-.02-3.98-1.19-4.54-3.79-.59-2.91-1.21-5.84-1.8-8.75-.04-.23-.02-.5-.33-.59v-2.7h.02c1.25-2.18,3.16-2.8,5.61-2.7,3.97.15,7.97,0,11.93.06.96.02,1.4-.27,1.74-1.15,1.59-4,3.39-7.91,5.34-11.76,3.64-7.18,9.39-11.59,16.92-14.06,8.43-2.78,17.07-4.16,25.88-4.75,9.21-.59,18.39-.33,27.55.96,7.3,1,14.41,2.76,21.19,5.73,5.54,2.43,9.06,6.78,11.93,11.88,2.15,3.81,3.87,7.82,5.42,11.9.38,1.02.92,1.28,1.95,1.28,4.29-.08,8.56-.04,12.85-.04,3.37.02,5,2.05,4.33,5.33Z"/><path class="c" d="M269.35,454.59c0-178.32,124.96-309.82,284.18-319.98,159.31-10.57,299.33,104.64,319.63,263,13.58,93.37-18.42,187.59-86.06,253.37-60.42,61.79-122.72,123.41-184.52,185.03-22.03,21.86-37.7,22.03-59.21,0-62.31-61.96-124.45-124.1-186.41-186.41-53.29-51.25-84.69-121.13-87.61-195.02ZM573.32,176.61c-142.58-1.91-259.71,112.12-261.63,254.7,0,.02,0,.03,0,.05,1.23,142.59,117.82,257.18,260.4,255.95h.02c142.58,2.01,259.79-111.94,261.8-254.52,0-.07,0-.15,0-.22-1.23-142.59-117.82-257.18-260.4-255.95-.06,0-.13,0-.19,0Z"/></svg>