<?xml version="1.0" encoding="UTF-8"?><svg id="a" xmlns="http://www.w3.org/2000/svg" width="1102.3" height="1000" viewBox="0 0 1102.3 1000"><defs><style>.b{fill:#d64545;}</style></defs><path class="b" d="M203.43,471.38c0-186.89,131.07-323.23,296.29-334.06,165.23-10.83,312.39,109.55,334.06,274.77,14.3,96.91-19.71,195.77-89.84,263.94-62.9,64.71-127.46,129.26-192.16,193.97-23.32,23.32-39.58,23.32-61.09,0-64.71-64.71-129.26-129.26-193.97-193.97-57.48-55.68-91.64-127.46-93.45-204.65h.15ZM519.44,180.36c-148.97-1.81-269.36,116.77-271.16,265.74,1.81,148.97,122.04,267.55,271.16,267.55h0c148.97,1.81,271.16-116.77,272.97-265.74h0c-1.81-148.97-122.04-269.36-272.97-267.55h0Z"/><path d="M470.98,392.43h-77.2v-77.2h77.2v77.2ZM404.47,381.59h57.48v-57.48h-57.48v57.48Z"/><rect x="414.11" y="335.03" width="37.77" height="37.77" transform="translate(77.43 785.55) rotate(-89.78)"/><path d="M666.75,395.89h-80.81v-77.2h80.81v77.2ZM596.78,386.86h61.09v-57.48h-61.09v57.48Z"/><rect x="607.31" y="337.34" width="37.77" height="41.23" transform="translate(265.95 982.83) rotate(-89.79)"/><path d="M470.98,588.05h-80.81v-77.2h80.81v77.2ZM399.2,577.21h61.09v-57.48h-61.09v57.48Z"/><rect x="411.77" y="528.31" width="37.77" height="41.23" transform="translate(-119.92 977.47) rotate(-89.78)"/><rect x="573.81" y="455.03" width="14.3" height="10.83" transform="translate(118.49 1039.8) rotate(-89.8)"/><rect x="648.35" y="407.06" width="14.3" height="10.83" transform="translate(240.62 1066.45) rotate(-89.79)"/><rect x="638.98" y="417.79" width="10.83" height="14.3" transform="translate(217.1 1067.77) rotate(-89.79)"/><rect x="599.8" y="467.07" width="14.3" height="14.3" transform="translate(130.3 1079.25) rotate(-89.77)"/><rect x="622.75" y="428.59" width="14.3" height="14.3" transform="translate(191.85 1064.03) rotate(-89.79)"/><rect x="611.19" y="431.07" width="14.3" height="10.83" transform="translate(179.59 1053.23) rotate(-89.79)"/><rect x="611.88" y="444.57" width="14.3" height="10.83" transform="translate(166.67 1067.28) rotate(-89.78)"/><rect x="624.18" y="455.55" width="10.83" height="14.3" transform="translate(164.6 1090.59) rotate(-89.79)"/><rect x="612.56" y="456.24" width="10.83" height="10.83" transform="translate(153.74 1077.7) rotate(-89.76)"/><rect x="623.28" y="467.31" width="14.3" height="14.3" transform="translate(153.56 1103.06) rotate(-89.78)"/><rect x="611.48" y="468.11" width="14.3" height="10.83" transform="translate(143.06 1090.58) rotate(-89.81)"/><rect x="585.59" y="452.6" width="14.3" height="14.3" transform="translate(130.82 1050.8) rotate(-89.79)"/><rect x="552.65" y="466.46" width="10.83" height="10.83" transform="translate(83.96 1028.04) rotate(-89.77)"/><rect x="574.79" y="441.8" width="14.3" height="10.83" transform="translate(132.6 1027.51) rotate(-89.79)"/><rect x="576.3" y="466.7" width="10.83" height="10.83" transform="translate(107.37 1052.02) rotate(-89.78)"/><rect x="526.91" y="427.45" width="10.83" height="14.3" transform="translate(95.78 965.33) rotate(-89.79)"/><rect x="563.99" y="427.1" width="10.83" height="14.3" transform="translate(133.18 1002.14) rotate(-89.8)"/><rect x="561.58" y="415.45" width="14.3" height="14.3" transform="translate(144.05 989.77) rotate(-89.79)"/><rect x="552.36" y="429.49" width="10.83" height="10.83" transform="translate(120.83 991.08) rotate(-89.79)"/><rect x="549.87" y="417.93" width="14.3" height="10.83" transform="translate(131.63 978.82) rotate(-89.79)"/><rect x="538.4" y="451.94" width="14.3" height="14.3" transform="translate(84.56 1003.03) rotate(-89.8)"/><rect x="539.53" y="438.55" width="14.3" height="14.3" transform="translate(98.97 990.74) rotate(-89.79)"/><rect x="525.03" y="452.9" width="14.3" height="14.3" transform="translate(70.18 990.54) rotate(-89.79)"/><rect x="526.02" y="439.26" width="14.3" height="14.3" transform="translate(84.91 978.01) rotate(-89.8)"/><rect x="516.79" y="365.98" width="10.83" height="14.3" transform="translate(147.17 893.97) rotate(-89.79)"/><rect x="529.26" y="378.75" width="14.3" height="14.3" transform="translate(148.55 920.88) rotate(-89.79)"/><rect x="504.72" y="391.98" width="10.83" height="10.83" transform="translate(110.96 906.15) rotate(-89.8)"/><rect x="468.14" y="368.96" width="10.83" height="10.83" transform="translate(97.36 846.5) rotate(-89.78)"/><rect x="467.11" y="380.78" width="14.3" height="10.83" transform="translate(86.33 859.03) rotate(-89.79)"/><rect x="479.73" y="366.55" width="10.83" height="14.3" transform="translate(109.77 857.54) rotate(-89.8)"/><rect x="493.35" y="367.58" width="10.83" height="14.3" transform="translate(122.04 871.99) rotate(-89.77)"/><rect x="492.26" y="379.35" width="14.3" height="14.3" transform="translate(111.08 884.48) rotate(-89.79)"/><rect x="505.11" y="368.39" width="10.83" height="10.83" transform="translate(135.04 883.09) rotate(-89.81)"/><rect x="504.11" y="380.17" width="14.3" height="10.83" transform="translate(123.8 895.44) rotate(-89.79)"/><rect x="488.69" y="401.15" width="14.3" height="14.3" transform="translate(85.64 902.56) rotate(-89.78)"/><rect x="500.62" y="439.06" width="14.3" height="14.3" transform="translate(59.62 952.26) rotate(-89.78)"/><rect x="476.02" y="417.18" width="14.3" height="10.83" transform="translate(58.8 904.21) rotate(-89.79)"/><rect x="501.08" y="415.5" width="14.3" height="14.3" transform="translate(83.63 929.24) rotate(-89.78)"/><rect x="512.78" y="416.47" width="14.3" height="10.83" transform="translate(96.05 940.2) rotate(-89.78)"/><rect x="562.48" y="489.28" width="14.3" height="14.3" transform="translate(70.92 1064.05) rotate(-89.77)"/><rect x="466.69" y="427.8" width="10.83" height="14.3" transform="translate(35.59 905.61) rotate(-89.81)"/><rect x="453.07" y="426.7" width="10.83" height="14.3" transform="translate(22.71 890.51) rotate(-89.76)"/><rect x="463.81" y="439.56" width="14.3" height="14.3" transform="translate(22.61 916.1) rotate(-89.8)"/><rect x="450.32" y="438.61" width="14.3" height="14.3" transform="translate(9.96 901.51) rotate(-89.78)"/><rect x="488.15" y="453.32" width="14.3" height="14.3" transform="translate(32.84 953.91) rotate(-89.77)"/><rect x="476.44" y="453.99" width="14.3" height="10.83" transform="translate(22.24 941.14) rotate(-89.77)"/><rect x="490.51" y="464.91" width="10.83" height="14.3" transform="translate(22.06 966.25) rotate(-89.79)"/><rect x="477.15" y="465.58" width="10.83" height="10.83" transform="translate(9.8 951.83) rotate(-89.79)"/><rect x="489.4" y="502" width="10.83" height="14.3" transform="translate(-16.06 1002.18) rotate(-89.8)"/><rect x="487.67" y="476.7" width="14.3" height="14.3" transform="translate(9.24 976.97) rotate(-89.8)"/><rect x="390.72" y="452.09" width="14.3" height="14.3" transform="translate(-62.76 855.5) rotate(-89.8)"/><rect x="427.46" y="475.25" width="14.3" height="14.3" transform="translate(-49.38 915.24) rotate(-89.79)"/><rect x="428.34" y="463.46" width="10.83" height="14.3" transform="translate(-38.51 902.55) rotate(-89.78)"/><rect x="489.42" y="562.33" width="10.83" height="14.3" transform="translate(-76.62 1062.02) rotate(-89.77)"/><rect x="416.58" y="465.88" width="10.83" height="10.83" transform="translate(-50.85 891.57) rotate(-89.79)"/><rect x="403.75" y="476.61" width="14.3" height="14.3" transform="translate(-74.37 892.88) rotate(-89.79)"/><rect x="404.88" y="464.91" width="10.83" height="14.3" transform="translate(-63.26 880.62) rotate(-89.79)"/><rect x="390.5" y="475.62" width="14.3" height="14.3" transform="translate(-86.64 878.56) rotate(-89.78)"/><rect x="391.44" y="463.85" width="10.83" height="14.3" transform="translate(-75.6 866.12) rotate(-89.79)"/><rect x="403.45" y="437.95" width="14.3" height="14.3" transform="translate(-36 854.06) rotate(-89.79)"/><rect x="501.83" y="573.35" width="14.3" height="14.3" transform="translate(-73.47 1087.25) rotate(-89.78)"/><rect x="418.05" y="428.83" width="10.83" height="10.83" transform="translate(-12.26 856.19) rotate(-89.8)"/><rect x="392.73" y="426.95" width="10.83" height="14.3" transform="translate(-37.55 830.5) rotate(-89.77)"/><rect x="537.33" y="551.15" width="14.3" height="14.3" transform="translate(-15.9 1100.63) rotate(-89.78)"/><rect x="427.16" y="414.69" width="14.3" height="14.3" transform="translate(10.88 854.6) rotate(-89.79)"/><rect x="438.97" y="417.58" width="14.3" height="10.83" transform="translate(21.56 867.63) rotate(-89.8)"/><rect x="538.76" y="574.64" width="14.3" height="14.3" transform="translate(-38.07 1125.35) rotate(-89.77)"/><rect x="550.78" y="575.61" width="14.3" height="10.83" transform="translate(-25.14 1136.82) rotate(-89.79)"/><rect x="514.75" y="564.36" width="10.83" height="10.83" transform="translate(-51.51 1087.85) rotate(-89.79)"/><rect x="526.44" y="561.87" width="10.83" height="14.3" transform="translate(-39.3 1098.59) rotate(-89.77)"/><rect x="512.29" y="552.66" width="14.3" height="10.83" transform="translate(-40.35 1075.66) rotate(-89.81)"/><rect x="524.04" y="550.24" width="14.3" height="14.3" transform="translate(-28.24 1086.43) rotate(-89.78)"/><rect x="562.11" y="512.79" width="14.3" height="14.3" transform="translate(47.33 1087.38) rotate(-89.8)"/><rect x="526" y="525.02" width="10.83" height="14.3" transform="translate(-2.69 1061.64) rotate(-89.79)"/><rect x="551.45" y="503.34" width="10.83" height="10.83" transform="translate(46.07 1063.76) rotate(-89.79)"/><rect x="551.14" y="526.89" width="10.83" height="10.83" transform="translate(22.02 1086.72) rotate(-89.77)"/><rect x="550.1" y="538.68" width="14.3" height="10.83" transform="translate(11.01 1099.25) rotate(-89.78)"/><rect x="539.01" y="488.94" width="14.3" height="14.3" transform="translate(48.17 1040.5) rotate(-89.8)"/><rect x="464.22" y="476.52" width="14.3" height="14.3" transform="translate(-14.11 953.18) rotate(-89.78)"/><rect x="541.69" y="391.41" width="10.83" height="10.83" transform="translate(147.99 942.27) rotate(-89.76)"/><rect x="585.21" y="419.22" width="10.83" height="10.83" transform="translate(163.52 1013.48) rotate(-89.76)"/><rect x="596.83" y="416.68" width="10.83" height="14.3" transform="translate(176.63 1024.81) rotate(-89.83)"/><rect x="565.73" y="341.33" width="14.3" height="14.3" transform="translate(222.21 920.01) rotate(-89.78)"/><rect x="513.32" y="482.27" width="14.3" height="10.83" transform="translate(30.88 1006.37) rotate(-89.79)"/><rect x="566.11" y="378.29" width="14.3" height="14.3" transform="translate(185.72 957.28) rotate(-89.79)"/><rect x="566.86" y="389.89" width="10.83" height="14.3" transform="translate(173.04 967.79) rotate(-89.78)"/><rect x="500.56" y="465.89" width="14.3" height="14.3" transform="translate(32.81 979.01) rotate(-89.79)"/><rect x="525.46" y="489.73" width="14.3" height="14.3" transform="translate(33.6 1027.49) rotate(-89.77)"/><rect x="518.02" y="329.06" width="10.83" height="14.3" transform="translate(185.5 858.53) rotate(-89.81)"/><rect x="540.44" y="342.68" width="14.3" height="10.83" transform="translate(197.58 894.47) rotate(-89.8)"/><rect x="542.01" y="367.91" width="10.83" height="10.83" transform="translate(172 919.31) rotate(-89.78)"/><rect x="553.79" y="367.28" width="10.83" height="14.3" transform="translate(182.54 932.12) rotate(-89.77)"/><rect x="529.56" y="355.18" width="14.3" height="14.3" transform="translate(172.41 897.71) rotate(-89.79)"/><rect x="528.72" y="341.78" width="14.3" height="14.3" transform="translate(184.89 883.45) rotate(-89.78)"/><rect x="516.06" y="354.24" width="14.3" height="14.3" transform="translate(159.99 883.33) rotate(-89.8)"/><rect x="529.02" y="318.22" width="14.3" height="14.3" transform="translate(208.75 860.28) rotate(-89.78)"/><rect x="503.6" y="343.29" width="14.3" height="10.83" transform="translate(160.26 858.23) rotate(-89.8)"/><rect x="552.44" y="318.67" width="14.3" height="14.3" transform="translate(231.62 884.15) rotate(-89.78)"/><rect x="555" y="330.34" width="10.83" height="14.3" transform="translate(220.88 896.67) rotate(-89.79)"/><rect x="476.23" y="537.92" width="14.3" height="10.83" transform="translate(-61.82 1024.63) rotate(-89.78)"/><rect x="500.56" y="549.87" width="14.3" height="14.3" transform="translate(-51.16 1062.68) rotate(-89.79)"/><rect x="487.03" y="550.84" width="14.3" height="14.3" transform="translate(-65.71 1050.02) rotate(-89.78)"/><rect x="489" y="525.47" width="10.83" height="14.3" transform="translate(-40.01 1025.08) rotate(-89.79)"/><rect x="514.21" y="527.42" width="10.83" height="10.83" transform="translate(-15.2 1050.42) rotate(-89.78)"/><rect x="513.17" y="539.21" width="14.3" height="10.83" transform="translate(-26.21 1062.95) rotate(-89.79)"/><rect x="492.72" y="328.79" width="10.83" height="14.3" transform="translate(160.46 832.9) rotate(-89.8)"/><rect x="479.28" y="329.55" width="10.83" height="14.3" transform="translate(146.31 820.22) rotate(-89.8)"/><rect x="513.56" y="515.73" width="14.3" height="10.83" transform="translate(-2.26 1040.04) rotate(-89.8)"/><rect x="501.68" y="512.93" width="14.3" height="14.3" transform="translate(-13.2 1026.91) rotate(-89.78)"/><rect x="502.66" y="501.07" width="10.83" height="14.3" transform="translate(-2.09 1014.34) rotate(-89.78)"/><rect x="636.49" y="550.47" width="14.3" height="14.3" transform="translate(83.67 1199.21) rotate(-89.79)"/><rect x="638.37" y="525.17" width="10.83" height="14.3" transform="translate(109.11 1174.16) rotate(-89.79)"/><rect x="614.89" y="524.94" width="10.83" height="14.3" transform="translate(85.85 1150.35) rotate(-89.78)"/><rect x="612.19" y="536.72" width="14.3" height="14.3" transform="translate(72.99 1161.01) rotate(-89.77)"/><rect x="403.04" y="490.12" width="14.3" height="14.3" transform="translate(-88.65 905.54) rotate(-89.78)"/><rect x="414.85" y="491.03" width="14.3" height="10.83" transform="translate(-75.99 916.63) rotate(-89.79)"/><rect x="622.9" y="574.79" width="14.3" height="14.3" transform="translate(45.81 1209.84) rotate(-89.79)"/><rect x="647.53" y="539.74" width="14.3" height="10.83" transform="translate(107.01 1197.73) rotate(-89.78)"/><rect x="599.64" y="550.92" width="14.3" height="14.3" transform="translate(46.5 1162.81) rotate(-89.79)"/><rect x="598.97" y="480.58" width="14.3" height="14.3" transform="translate(115.86 1091.79) rotate(-89.76)"/><rect x="612.02" y="563.6" width="10.83" height="10.83" transform="translate(46.15 1184.37) rotate(-89.79)"/><rect x="599.19" y="574.48" width="14.3" height="14.3" transform="translate(22.48 1185.83) rotate(-89.79)"/><rect x="600.31" y="562.63" width="10.83" height="14.3" transform="translate(33.74 1173.41) rotate(-89.79)"/><rect x="647.55" y="480.95" width="14.3" height="10.83" transform="translate(165.6 1139.02) rotate(-89.76)"/><rect x="649.47" y="455.77" width="10.83" height="10.83" transform="translate(191.31 1114.38) rotate(-89.79)"/><rect x="637.77" y="454.79" width="10.83" height="14.3" transform="translate(178.89 1103.43) rotate(-89.79)"/><rect x="637.18" y="562.18" width="10.83" height="14.3" transform="translate(70.7 1209.63) rotate(-89.77)"/><rect x="475.26" y="578.18" width="14.3" height="10.83" transform="translate(-102.95 1063.86) rotate(-89.79)"/><rect x="638.07" y="491.64" width="10.83" height="14.3" transform="translate(142.34 1140.45) rotate(-89.79)"/><rect x="586.2" y="550.17" width="14.3" height="14.3" transform="translate(33.86 1148.61) rotate(-89.79)"/><rect x="464.58" y="453.02" width="14.3" height="14.3" transform="translate(9.67 930.04) rotate(-89.77)"/><rect x="573.59" y="539.06" width="14.3" height="10.83" transform="translate(34.13 1123.21) rotate(-89.79)"/><rect x="574.71" y="527.19" width="10.83" height="10.83" transform="translate(45.19 1110.59) rotate(-89.77)"/><rect x="562.78" y="524.35" width="10.83" height="14.3" transform="translate(34.73 1097.84) rotate(-89.8)"/><rect x="451.68" y="488.91" width="14.3" height="14.3" transform="translate(-38.99 952.98) rotate(-89.78)"/><rect x="451.95" y="463.79" width="10.83" height="14.3" transform="translate(-15.17 926.66) rotate(-89.8)"/><rect x="439.47" y="454.48" width="14.3" height="10.83" transform="translate(-14.92 904.83) rotate(-89.79)"/><rect x="451.28" y="452.11" width="14.3" height="14.3" transform="translate(-2.67 915.84) rotate(-89.77)"/><rect x="563.39" y="563.16" width="10.83" height="14.3" transform="translate(-3.48 1137.11) rotate(-89.8)"/><rect x="404.66" y="401.1" width="14.3" height="14.3" transform="translate(2.05 818.55) rotate(-89.79)"/><rect x="391.17" y="401.8" width="14.3" height="14.3" transform="translate(-12.02 805.84) rotate(-89.8)"/><rect x="415.5" y="417.23" width="14.3" height="10.83" transform="translate(-1.61 843.67) rotate(-89.78)"/><rect x="562.71" y="549.79" width="14.3" height="14.3" transform="translate(10.74 1124.65) rotate(-89.78)"/><rect x="574.26" y="576" width="14.3" height="10.83" transform="translate(-2.43 1160.38) rotate(-89.76)"/></svg>