<?xml version="1.0" encoding="UTF-8"?><svg id="a" xmlns="http://www.w3.org/2000/svg" width="1102.3" height="1000" viewBox="0 0 1102.3 1000"><defs><style>.b{fill:#231f20;}.c{fill:#2f3fa0;}</style></defs><path class="c" d="M226.94,451.4c0-186.8,130.91-324.56,297.69-335.38,166.74-10.92,313.32,109.47,335.02,275.15,14.14,97.8-19.38,196.46-90.16,265.42-63.83,65.45-129.1,129.28-193.83,193.83-22.9,22.9-39.49,23.08-62.03,0-65.09-64.91-130.55-129.82-195.28-195.28-55.43-53.71-88.15-126.64-91.42-203.75ZM545.55,159.47c-149.36-2-272.07,117.45-274.07,266.81,0,.02,0,.03,0,.05,1.19,149.37,123.24,269.49,272.61,268.3,0,0,.01,0,.02,0,149.36,2.1,272.15-117.27,274.25-266.63,0-.08,0-.15,0-.23-1.19-149.37-123.24-269.49-272.61-268.3-.07,0-.13,0-.2,0Z"/><path class="b" d="M529.86,282.63c0,42.55-1.62,83.84,0,125.14,1.12,18.28,6.3,36.08,15.15,52.11,20.74,36.06,44.72,71.22,67.08,106.38-38.23,29.57-108.19,25.96-155.43-6.49-54.48-38.04-78.46-106.71-59.5-170.39,16.27-60.69,69.95-103.86,132.71-106.74Z"/><path class="b" d="M569.53,444.36l118.1-88.89c43.82,57.7,20.74,170.03-42.37,206.64l-75.73-117.74Z"/><path class="b" d="M561.95,411.91v-144.25c43.58,4.99,83.5,26.79,111.25,60.76l-111.25,83.48Z"/></svg>