<?xml version="1.0" encoding="UTF-8"?><svg id="a" xmlns="http://www.w3.org/2000/svg" width="1102.3" height="1000" viewBox="0 0 1102.3 1000"><defs><style>.b{fill:#231f20;}.c{fill:#ffbc00;}</style></defs><path class="b" d="M434.58,436.88h-.93c-22.49,0-40.69,18.2-40.69,40.69v95.76h82.32v-95.76c0-22.49-18.2-40.69-40.69-40.69ZM418.35,527.31h-11.48v-11.59h11.48v11.59ZM439.91,527.31h-11.59v-11.59h11.59v11.59ZM461.83,527.31h-11.48v-11.59h11.48v11.59ZM461.83,502.85h-54.96v-28.98c0-14.84,12.06-26.9,27.01-26.9h.93c14.96,0,27.01,12.06,27.01,26.9v28.98Z"/><path class="b" d="M430.01,456.9h8.98c7.16,0,12.97,5.81,12.97,12.97v24.98h-34.92v-24.98c0-7.16,5.81-12.97,12.97-12.97Z"/><path class="b" d="M384.03,580.04h100.4c6.66,0,12.07,5.41,12.07,12.07v14.86h-124.55v-14.86c0-6.66,5.41-12.07,12.07-12.07Z"/><circle class="b" cx="433.75" cy="401.01" r="6.42"/><path class="b" d="M395.73,366.29l6.98,6.98c17.35-17.34,45.47-17.34,62.82,0l6.98-6.98c-21.18-21.18-55.56-21.18-76.78,0Z"/><path class="b" d="M409.69,382.02l6.98,6.98c9.63-9.63,25.27-9.63,34.9,0l6.98-6.98c-13.47-13.47-35.35-13.47-48.86,0Z"/><path class="b" d="M477.01,452.53l35.01,14.84-26.55,21.68v-11.48c0-9.51-3.25-18.09-8.46-25.04Z"/><polygon class="b" points="489.88 421.46 541.48 443.14 522.69 458.56 471.1 436.88 489.88 421.46"/><polygon class="b" points="520.84 396.07 572.43 417.87 552.14 434.44 500.55 412.76 520.84 396.07"/><polygon class="b" points="547.39 374.27 598.98 396.07 583.1 409.05 531.5 387.37 547.39 374.27"/><polygon class="b" points="575.79 351.09 627.38 372.76 609.65 387.26 558.05 365.58 575.79 351.09"/><polygon class="b" points="604.54 327.55 656.14 349.23 638.17 363.95 586.57 342.16 604.54 327.55"/><polygon class="b" points="632.02 304.94 683.61 326.74 666.8 340.42 615.33 318.74 632.02 304.94"/><polyline class="b" points="694.28 317.93 642.69 296.25 668.54 275.03"/><path class="c" d="M203.28,478.6c0-187.14,131.14-325.15,298.24-335.99,167.03-10.94,313.9,109.67,335.62,275.65,14.17,97.99-19.4,196.82-90.31,265.89-63.94,65.57-129.34,129.51-194.19,194.19-22.94,22.94-39.55,23.13-62.14,0-65.2-65.03-130.77-130.07-195.62-195.62-55.54-53.8-88.3-126.86-91.57-204.12h-.02ZM522.45,186.15c-149.64-2.01-272.57,117.66-274.57,267.29v.04c1.2,149.64,123.47,269.98,273.11,268.78h0c149.64,2.11,272.63-117.49,274.74-267.11v-.23c-1.2-149.64-123.47-269.98-273.11-268.78h-.21.04Z"/></svg>