<?xml version="1.0" encoding="UTF-8"?><svg id="a" xmlns="http://www.w3.org/2000/svg" width="1102.3" height="1000" viewBox="0 0 1102.3 1000"><defs><style>.b{fill:#676c76;}.c{fill:sienna;}</style></defs><path class="c" d="M822.3,339.12c-53.98-114.69-170.22-182.17-296.19-171.85-155.72,12.73-274,141.18-273.4,296.82v.04c.33,81.43,29.67,151.02,87.16,208.7,60.27,60.45,120.94,120.57,181.47,180.8,21.27,21.2,37.03,21.42,58.12.52,61.08-60.6,122.2-121.13,182.95-182.06,88.13-88.42,112.03-222.2,59.9-332.97ZM551.71,706.68c-141.77.15-255.61-111.06-255.5-249.65.07-137.89,112.95-247.32,254.94-247.28,141.96.07,255.76,111.32,255.28,249.61-.48,134.96-116.02,247.17-254.72,247.32Z"/><path class="b" d="M536.04,612.4c-11.74-5.78-14.13-13.2-7.95-24.77,3.87-7.24,7.72-14.5,11.67-21.71,4.4-8.04,13.08-10.89,20.51-6.81,7.17,3.93,9.57,12.72,5.47,20.58-4.23,8.09-8.74,16.03-12.86,24.18-2.12,4.2-5.79,6.32-9.51,8.55h-7.33Z"/><path d="M414.46,480.94c-.81-3.04-1.44-5.88-2.34-8.62-2.49-7.65-7.32-13.02-14.91-16.22-13.73-5.79-27.27-12.03-40.92-17.98-2.41-1.05-3.05-1.95-1.77-4.66,15-31.6,29.87-63.27,44.63-94.98,1.28-2.75,2.38-2.67,4.71-1.57,12.79,6.05,25.89,11.47,38.39,18.05,13.67,7.19,27.57,7.68,42.14,4.25,9.77-2.31,19.48-5,29.61-5.45,8.31-.38,16.29.91,24.28,4.59-12.93,12.25-25.26,24.65-39.52,34.9-9.16,6.58-18.62,12.7-28.32,18.45-6.83,4.05-7.63,8.26-2.82,14.52,10.17,13.23,22.54,23.11,39.67,25.47,12.23,1.69,24.03-.69,35.46-4.71,12.19-4.29,24.17-9.15,36.28-13.65,5.01-1.86,10.18-3.09,15.55-3.52,6.09-.49,11.79.51,17.15,3.57,25.51,14.56,51.07,29.05,76.57,43.63,8.09,4.63,10.89,13.32,6.88,20.6-4.07,7.39-13.23,9.57-21.39,4.99-17.52-9.84-35.02-19.71-52.5-29.6-1.88-1.06-3.74-2.21-5.93-2.15-3.74.1-6.48,1.97-7.53,5.57-1.25,4.26.57,7.41,4.32,9.54,10.86,6.15,21.73,12.29,32.59,18.44,4.9,2.77,9.86,5.46,14.69,8.33,7.61,4.53,10.08,13.27,5.91,20.47-4.09,7.05-12.64,9.37-20.27,5.16-19.46-10.74-38.83-21.62-58.23-32.45-2.13-1.19-4.21-2.63-6.79-2.32-3.71.45-6.25,2.56-7.09,6.19-.85,3.67.63,6.63,3.87,8.52,5.65,3.3,11.37,6.49,17.07,9.7,10.34,5.83,20.74,11.56,31.01,17.51,6.5,3.76,9.22,10.95,7.06,17.63-2.09,6.48-8.67,10.59-15.76,9.89-2.49-.25-4.65-1.35-6.79-2.53-10.11-5.61-20.24-11.2-30.39-16.75-1.77-.97-3.18-2.29-4.63-3.66-7.89-7.49-17.31-10-27.83-7.79-2.79.58-3.84.35-4.92-2.45-5.65-14.67-19.83-22.24-35.32-18.8-2.76.62-3.47.08-4.42-2.42-5.08-13.34-17.21-20.76-31.72-19.7-1.71.13-3.15,1.02-3.87-1.99-5.88-24.47-31.6-32.78-50.74-16.56-.22.19-.53.27-1.12.57v-.03Z"/><path class="b" d="M748.42,452.22c-.07,1.35-1.29,1.43-2.21,1.83-12.71,5.44-25.44,10.86-38.14,16.35-1.62.7-2.68.59-3.87-.84-2.58-3.08-6.03-5.09-9.48-7.06-24.71-14.1-49.51-28.06-74.11-42.34-14.73-8.55-29.79-7.44-44.96-2.2-12.21,4.22-24.12,9.26-36.28,13.59-10.09,3.59-20.36,6.28-31.3,4.24-8.6-1.6-15.49-6-21.67-11.91-1.59-1.52-1.78-2.37.33-3.62,22.05-13.08,41.07-29.91,59.59-47.46,10.59-10.05,22.88-17.67,37.53-20.68,11.73-2.41,22.99-.44,34.08,3.52,11.01,3.93,21.46,9.41,33.1,11.6,9,1.69,17.54.66,25.66-3.77,9.21-5.02,18.55-9.81,27.73-14.9,2.42-1.34,3.48-1.26,4.54,1.52,12.82,33.34,25.75,66.64,38.65,99.95.27.71.54,1.42.83,2.2h0Z"/><path class="b" d="M454.75,580.37c-11.52-.23-18.72-11.08-14.09-20.5,6.35-12.94,13.28-25.63,20.33-38.21,3.77-6.73,13.07-8.87,19.65-5.21,6.51,3.63,9.53,12.09,6.04,18.97-6.46,12.73-13.27,25.29-20.15,37.79-2.71,4.92-7.35,7.07-11.77,7.16h0Z"/><path class="b" d="M527.93,551.19c.2,2.46-.86,4.98-2.16,7.41-4.85,9.11-9.69,18.23-14.61,27.31-4.45,8.18-12.83,11.07-20.37,7.16-7.59-3.94-9.93-12.81-5.51-21.18,5.03-9.53,10.03-19.08,15.27-28.49,3.4-6.1,10.23-8.71,16.84-6.93,6.25,1.68,10.58,7.57,10.54,14.73h0Z"/><path class="b" d="M451.01,503.03c.15,2.07-.43,4.26-1.53,6.32-4.79,9-9.47,18.07-14.44,26.97-4.05,7.24-12.69,9.74-19.74,6.06-7.2-3.76-9.94-12.46-6.05-20.05,4.65-9.07,9.45-18.07,14.42-26.98,3.38-6.06,10.51-8.82,16.85-6.96,6.49,1.91,10.5,7.4,10.49,14.64h0Z"/><path class="b" d="M583.98,574.53c4.69,2.6,9.33,4.89,13.67,7.65,6.75,4.28,8.74,12.93,4.85,19.66-3.87,6.7-12.29,9.2-19.48,5.77-7.59-3.62-9.45-9.09-5.56-16.39,1.42-2.68,2.99-5.32,4.11-8.13,1.05-2.64,1.58-5.49,2.42-8.55h0Z"/></svg>