<?xml version="1.0" encoding="UTF-8"?><svg id="a" xmlns="http://www.w3.org/2000/svg" width="1102.3" height="1000" viewBox="0 0 1102.3 1000"><defs><style>.b{fill:#7a1ed9;}</style></defs><path class="b" d="M220.21,460.74c0-182.89,128.17-317.77,291.46-328.36,163.25-10.69,306.76,107.18,328.01,269.4,13.84,95.75-18.97,192.35-88.27,259.86-62.49,64.08-126.4,126.58-189.78,189.78-22.42,22.42-38.66,22.6-60.73,0-63.73-63.55-127.81-127.11-191.19-191.19-54.27-52.59-86.31-123.99-89.5-199.49ZM532.15,174.92c-146.23-1.96-266.37,114.99-268.34,261.23,0,.02,0,.03,0,.05,1.17,146.24,120.66,263.85,266.91,262.69,0,0,.01,0,.02,0,146.23,2.06,266.45-114.82,268.51-261.05,0-.08,0-.15,0-.23-1.16-146.24-120.66-263.85-266.91-262.69-.06,0-.13,0-.19,0Z"/><path d="M505.56,570.93c54.6,0,104.49-22.97,134.57-61.66h65.94c12.72,0,23.13-10.4,23.13-23.12v-107.9c0-12.72-10.41-23.12-23.13-23.12h-65.94c-30-38.69-79.97-61.66-134.57-61.66-89.3,0-161.94,62.2-161.94,138.73s72.64,138.73,161.94,138.73ZM713.78,378.25v107.9c0,4.24-3.47,7.71-7.71,7.71h-185.08c-4.24,0-7.71-3.47-7.71-7.71v-107.9c0-4.24,3.47-7.71,7.71-7.71h185.08c4.24,0,7.71,3.47,7.71,7.71ZM505.56,308.88c45.19,0,86.76,17.03,114.29,46.24h-98.86c-12.72,0-23.13,10.4-23.13,23.12v107.9c0,12.72,10.41,23.12,23.13,23.12h98.86c-27.61,29.21-69.17,46.24-114.29,46.24-80.82,0-146.52-55.34-146.52-123.32s65.71-123.31,146.52-123.31Z"/><path d="M532.14,436.67h38.56c4.24,0,7.71-3.47,7.71-7.71v-38.53c0-4.24-3.47-7.71-7.71-7.71h-38.56c-4.24,0-7.71,3.47-7.71,7.71v38.53c0,4.24,3.47,7.71,7.71,7.71ZM539.85,398.13h23.13v23.12h-23.13v-23.12Z"/><path d="M529.76,455.32h22.15c2.4,0,4.35,1.95,4.35,4.35v6.72c0,2.4-1.95,4.35-4.35,4.35h-22.15c-2.4,0-4.35-1.95-4.35-4.35v-6.72c0-2.4,1.95-4.35,4.35-4.35Z"/><path d="M572.42,455.32h22.15c2.4,0,4.35,1.95,4.35,4.35v6.72c0,2.4-1.95,4.35-4.35,4.35h-22.15c-2.4,0-4.35-1.95-4.35-4.35v-6.72c0-2.4,1.95-4.35,4.35-4.35Z"/><path d="M618.45,455.32h22.15c2.4,0,4.35,1.95,4.35,4.35v6.72c0,2.4-1.95,4.35-4.35,4.35h-22.15c-2.4,0-4.35-1.95-4.35-4.35v-6.72c0-2.4,1.95-4.35,4.35-4.35Z"/><path d="M661.11,455.32h22.15c2.4,0,4.35,1.95,4.35,4.35v6.72c0,2.4-1.95,4.35-4.35,4.35h-22.15c-2.4,0-4.35-1.95-4.35-4.35v-6.72c0-2.4,1.95-4.35,4.35-4.35Z"/><path d="M458.23,432.21v-.02h15.42v.02c0,9.32,3.32,18.2,9.43,25.18,1.03,1.18.98,2.95-.12,4.07l-6.68,6.72c-1.21,1.22-3.2,1.16-4.34-.12-8.87-9.87-13.7-22.5-13.7-35.85Z"/><path d="M427.46,432.21v-.02h15.42v.02c0,17.53,6.52,34.1,18.37,46.94,1.09,1.18,1.07,3-.06,4.14l-6.67,6.72c-1.19,1.19-3.14,1.18-4.29-.05-14.69-15.75-22.77-36.12-22.77-57.74Z"/><path d="M396.69,432.19h15.35c.03,27.83,9.76,53.45,26.05,69.42,1.15,1.12,1.23,2.94.16,4.14l-6.29,7.04c-1.12,1.26-3.07,1.34-4.28.17-19.44-18.75-30.96-48.73-30.98-80.77Z"/><path d="M458.23,432.2v.02h15.42v-.02c0-9.32,3.32-18.2,9.43-25.18,1.03-1.18.98-2.95-.12-4.07l-6.68-6.72c-1.21-1.22-3.2-1.16-4.34.12-8.87,9.87-13.7,22.5-13.7,35.85Z"/><path d="M427.46,432.2v.02h15.42v-.02c0-17.53,6.52-34.1,18.37-46.94,1.09-1.18,1.07-3-.06-4.14l-6.67-6.72c-1.19-1.19-3.14-1.18-4.29.05-14.69,15.75-22.77,36.12-22.77,57.74Z"/><path d="M396.69,432.22h15.35c.03-27.83,9.76-53.45,26.05-69.42,1.15-1.12,1.23-2.94.16-4.14l-6.29-7.04c-1.12-1.26-3.07-1.34-4.28-.17-19.44,18.75-30.96,48.73-30.98,80.77Z"/></svg>