<?xml version="1.0" encoding="UTF-8"?><svg id="a" xmlns="http://www.w3.org/2000/svg" width="1102.3" height="1000" viewBox="0 0 1102.3 1000"><defs><style>.b{fill:#231f20;}.c{fill:#fffff8;}.d{fill:#2d6be0;}</style></defs><path class="d" d="M835.18,329.29c-55.13-117.14-173.86-186.07-302.53-175.52-159.05,13-279.85,144.2-279.25,303.17v.04c.34,83.17,30.31,154.25,89.03,213.16,61.56,61.74,123.53,123.15,185.35,184.67,21.73,21.65,37.83,21.88,59.36.53,62.39-61.9,124.81-123.72,186.86-185.95,90.01-90.31,114.42-226.95,61.18-340.09ZM558.8,704.71c-144.8.15-261.07-113.44-260.96-254.99.08-140.83,115.37-252.61,260.39-252.57,144.99.08,261.23,113.7,260.73,254.95-.49,137.85-118.5,252.46-260.17,252.61Z"/><rect class="b" x="448.2" y="261.94" width="220.49" height="364.6" rx="15.62" ry="15.62"/><circle class="c" cx="558.45" cy="577.58" r="26.57"/><rect class="c" x="467.11" y="291.47" width="30" height="29.68" rx="2.8" ry="2.8"/><rect class="c" x="515.88" y="291.47" width="134.98" height="29.68" rx="3.51" ry="3.51"/><rect class="c" x="466.92" y="346" width="183.97" height="97.64" rx="2.95" ry="2.95"/><rect class="c" x="466.92" y="470.42" width="183.97" height="52.63" rx="4.02" ry="4.02"/></svg>