<?xml version="1.0" encoding="UTF-8"?><svg id="a" xmlns="http://www.w3.org/2000/svg" width="1102.3" height="1000" viewBox="0 0 1102.3 1000"><defs><style>.b{fill:#fff;}.c{fill:#f48733;}</style></defs><path class="b" d="M623.4,506.67h-152.58c-11.63,0-20.34-8.72-20.34-20.34v-104.63c0-11.63,8.72-20.34,20.34-20.34h152.58c11.63,0,20.34,8.72,20.34,20.34v104.63c0,11.63-8.72,20.34-20.34,20.34Z"/><path d="M238.31,461.62c0-180.19,126.43-312.43,287.73-324.06,161.3-10.17,302.26,106.08,322.6,265.93,13.08,94.46-18.89,188.91-87.19,255.76-61.03,62.49-124.97,124.97-187.46,187.46-21.8,21.8-37.78,21.8-59.58,0-62.49-62.49-126.43-124.97-188.91-188.91-52.31-50.86-84.28-122.07-87.19-196.18h0ZM544.93,179.71c-143.86-1.45-261.57,113.35-264.48,257.21h0c1.45,143.86,119.16,260.12,263.02,258.66h0c143.86,1.45,263.02-113.35,264.48-257.21h0c0-143.86-117.71-260.12-263.02-258.66,1.45,0,0,0,0,0Z"/><path class="c" d="M459.19,271.25h21.8c4.36,0,7.27,2.91,7.27,7.27v53.77c0,4.36-2.91,7.27-7.27,7.27h-21.8c-4.36,0-7.27-2.91-7.27-7.27v-53.77c0-4.36,2.91-7.27,7.27-7.27Z"/><path class="c" d="M508.6,271.25h21.8c4.36,0,7.27,2.91,7.27,7.27v53.77c0,4.36-2.91,7.27-7.27,7.27h-21.8c-4.36,0-7.27-2.91-7.27-7.27v-53.77c0-4.36,4.36-7.27,7.27-7.27Z"/><path class="c" d="M559.46,271.25h21.8c4.36,0,7.27,2.91,7.27,7.27v53.77c0,4.36-2.91,7.27-7.27,7.27h-21.8c-4.36,0-7.27-2.91-7.27-7.27v-53.77c0-4.36,2.91-7.27,7.27-7.27Z"/><path class="c" d="M608.87,271.25h23.25c4.36,0,7.27,2.91,7.27,7.27v53.77c0,4.36-2.91,7.27-7.27,7.27h-21.8c-4.36,0-7.27-2.91-7.27-7.27v-53.77c-1.45-4.36,2.91-7.27,5.81-7.27Z"/><path class="c" d="M459.19,534.28h21.8c4.36,0,7.27,2.91,7.27,7.27v53.77c0,4.36-2.91,7.27-7.27,7.27h-21.8c-4.36,0-7.27-2.91-7.27-7.27v-53.77c0-4.36,2.91-7.27,7.27-7.27Z"/><path class="c" d="M508.6,534.28h21.8c4.36,0,7.27,2.91,7.27,7.27v53.77c0,4.36-2.91,7.27-7.27,7.27h-21.8c-4.36,0-7.27-2.91-7.27-7.27v-53.77c0-4.36,4.36-7.27,7.27-7.27Z"/><path class="c" d="M559.46,534.28h21.8c4.36,0,7.27,2.91,7.27,7.27v53.77c0,4.36-2.91,7.27-7.27,7.27h-21.8c-4.36,0-7.27-2.91-7.27-7.27v-53.77c0-4.36,2.91-7.27,7.27-7.27Z"/><path class="c" d="M608.87,534.28h23.25c4.36,0,7.27,2.91,7.27,7.27v53.77c0,4.36-2.91,7.27-7.27,7.27h-21.8c-4.36,0-7.27-2.91-7.27-7.27v-53.77c-1.45-4.36,2.91-7.27,5.81-7.27Z"/><path class="c" d="M643.75,521.2v-21.8c0-4.36,2.91-7.27,7.27-7.27h53.77c4.36,0,7.27,2.91,7.27,7.27v21.8c0,4.36-2.91,7.27-7.27,7.27h-53.77c-4.36,0-7.27-2.91-7.27-7.27Z"/><path class="c" d="M643.75,471.79v-21.8c0-4.36,2.91-7.27,7.27-7.27h53.77c4.36,0,7.27,2.91,7.27,7.27v21.8c0,4.36-2.91,7.27-7.27,7.27h-53.77c-4.36,0-7.27-2.91-7.27-7.27Z"/><path class="c" d="M643.75,422.38v-23.25c0-4.36,2.91-7.27,7.27-7.27h53.77c4.36,0,7.27,2.91,7.27,7.27v21.8c0,4.36-2.91,7.27-7.27,7.27h-53.77c-4.36,1.45-7.27-1.45-7.27-5.81Z"/><path class="c" d="M643.75,371.52v-21.8c0-4.36,2.91-7.27,7.27-7.27h53.77c4.36,0,7.27,2.91,7.27,7.27v21.8c0,4.36-2.91,7.27-7.27,7.27h-53.77c-4.36,0-7.27-2.91-7.27-7.27Z"/><path class="c" d="M377.82,522.65v-21.8c0-4.36,2.91-7.27,7.27-7.27h53.77c4.36,0,7.27,2.91,7.27,7.27v21.8c0,4.36-2.91,7.27-7.27,7.27h-53.77c-4.36,0-7.27-4.36-7.27-7.27Z"/><path class="c" d="M377.82,471.79v-21.8c0-4.36,2.91-7.27,7.27-7.27h53.77c4.36,0,7.27,2.91,7.27,7.27v21.8c0,4.36-2.91,7.27-7.27,7.27h-53.77c-4.36,0-7.27-2.91-7.27-7.27Z"/><path class="c" d="M377.82,422.38v-23.25c0-4.36,2.91-7.27,7.27-7.27h53.77c4.36,0,7.27,2.91,7.27,7.27v21.8c0,4.36-2.91,7.27-7.27,7.27h-53.77c-4.36,1.45-7.27-1.45-7.27-5.81Z"/><path class="c" d="M377.82,371.52v-21.8c0-4.36,2.91-7.27,7.27-7.27h53.77c4.36,0,7.27,2.91,7.27,7.27v21.8c0,4.36-2.91,7.27-7.27,7.27h-53.77c-4.36,0-7.27-2.91-7.27-7.27Z"/><path class="c" d="M523.13,415.12l-13.08,34.88h24.7l-11.63-34.88ZM523.13,415.12l-13.08,34.88h24.7l-11.63-34.88ZM523.13,415.12l-13.08,34.88h24.7l-11.63-34.88ZM523.13,415.12l-13.08,34.88h24.7l-11.63-34.88ZM523.13,415.12l-13.08,34.88h24.7l-11.63-34.88ZM649.56,317.76h-206.35c-8.72,0-15.98,7.27-15.98,15.98v206.35c0,8.72,7.27,15.98,15.98,15.98h206.35c8.72,0,15.98-7.27,15.98-15.98v-206.35c0-8.72-7.27-15.98-15.98-15.98ZM546.38,480.51l-4.36-11.63h-39.24l-4.36,11.63h-30.52l39.24-97.36h30.52l36.33,97.36c1.45,0-27.61,0-27.61,0ZM581.26,480.51v-97.36h30.52v97.36s-30.52,0-30.52,0ZM511.51,449.99h24.7l-11.63-34.88-13.08,34.88ZM523.13,415.12l-13.08,34.88h24.7l-11.63-34.88ZM523.13,415.12l-13.08,34.88h24.7l-11.63-34.88ZM523.13,415.12l-13.08,34.88h24.7l-11.63-34.88ZM523.13,415.12l-13.08,34.88h24.7l-11.63-34.88Z"/></svg>